<?xml version="1.0" encoding="UTF-8" standalone="no"?>
<!DOCTYPE svg PUBLIC "-//W3C//DTD SVG 1.1//EN" "http://www.w3.org/Graphics/SVG/1.1/DTD/svg11.dtd">
<svg width="100%" height="100%" viewBox="0 0 481 163" version="1.1" xmlns="http://www.w3.org/2000/svg" xmlns:xlink="http://www.w3.org/1999/xlink" xml:space="preserve" xmlns:serif="http://www.serif.com/" style="fill-rule:evenodd;clip-rule:evenodd;stroke-linejoin:round;stroke-miterlimit:1.41421;">
    <g transform="matrix(1,0,0,1,-83.282,-401.231)">
        <g>
            <path d="M231.277,463.443C229.776,463.443 228.559,464.66 228.559,466.161L228.559,515.567C228.559,517.068 229.776,518.285 231.277,518.285C232.777,518.285 233.994,517.068 233.994,515.567L233.994,466.161C233.994,464.66 232.777,463.443 231.277,463.443Z" style="fill:url(#_Linear1);"/>
            <path d="M240.056,467.307C238.555,467.307 237.338,468.524 237.338,470.025L237.338,494.691C237.338,496.192 238.555,497.409 240.056,497.409C241.557,497.409 242.774,496.192 242.774,494.691L242.774,470.025C242.774,468.524 241.557,467.307 240.056,467.307Z" style="fill:url(#_Linear2);"/>
            <path d="M204.938,463.17C203.437,463.17 202.22,464.387 202.22,465.888L202.22,490.273C202.22,491.572 203.273,492.625 204.572,492.625L205.303,492.625C206.602,492.625 207.655,491.572 207.655,490.273L207.655,465.888C207.655,464.387 206.438,463.17 204.938,463.17Z" style="fill:url(#_Linear3);"/>
            <path d="M319.073,433.887C317.572,433.887 316.355,435.104 316.355,436.605L316.355,478.997C316.355,480.497 317.572,481.714 319.073,481.714C320.573,481.714 321.79,480.497 321.79,478.997L321.79,436.605C321.79,435.104 320.573,433.887 319.073,433.887Z" style="fill:url(#_Linear4);"/>
            <path d="M319.073,419.023C317.572,419.023 316.355,420.24 316.355,421.741L316.355,428.066C316.355,429.567 317.572,430.784 319.073,430.784C320.573,430.784 321.79,429.567 321.79,428.066L321.79,421.741C321.79,420.24 320.573,419.023 319.073,419.023Z" style="fill:url(#_Linear5);"/>
            <path d="M319.073,483.097C317.572,483.097 316.355,484.314 316.355,485.815L316.355,541.242C316.355,542.743 317.572,543.96 319.073,543.96C320.573,543.96 321.79,542.743 321.79,541.242L321.79,485.815C321.79,484.314 320.573,483.097 319.073,483.097Z" style="fill:url(#_Linear6);"/>
            <path d="M327.852,447.621C326.351,447.621 325.135,448.838 325.135,450.339L325.135,514.377C325.135,515.878 326.351,517.095 327.852,517.095C329.353,517.095 330.57,515.878 330.57,514.377L330.57,450.339C330.57,448.838 329.353,447.621 327.852,447.621Z" style="fill:url(#_Linear7);"/>
            <path d="M310.293,427.323C308.792,427.323 307.575,428.54 307.575,430.041L307.575,457.626C307.575,459.127 308.792,460.343 310.293,460.343C311.794,460.343 313.01,459.127 313.01,457.626L313.01,430.041C313.01,428.54 311.794,427.323 310.293,427.323Z" style="fill:url(#_Linear8);"/>
            <path d="M310.293,462.383C308.792,462.383 307.575,463.6 307.575,465.101L307.575,550.871C307.575,552.372 308.792,553.588 310.293,553.588C311.794,553.588 313.01,552.372 313.01,550.871L313.01,465.101C313.01,463.6 311.794,462.383 310.293,462.383Z" style="fill:url(#_Linear9);"/>
            <path d="M213.717,462.676C212.216,462.676 211,463.893 211,465.393L211,501.337C211,502.636 212.052,503.689 213.352,503.689L214.083,503.689C215.382,503.689 216.435,502.636 216.435,501.337L216.435,465.393C216.435,463.893 215.218,462.676 213.717,462.676Z" style="fill:url(#_Linear10);"/>
            <path d="M213.717,449.445C212.216,449.445 211,450.661 211,452.162L211,458.349C211,459.648 212.052,460.701 213.352,460.701L214.083,460.701C215.382,460.701 216.435,459.648 216.435,458.349L216.435,452.162C216.435,450.661 215.218,449.445 213.717,449.445Z" style="fill:url(#_Linear11);"/>
            <path d="M292.734,401.231C291.233,401.231 290.016,402.448 290.016,403.948L290.016,538.376C290.016,539.877 291.233,541.094 292.734,541.094C294.235,541.094 295.451,539.877 295.451,538.376L295.451,403.948C295.451,402.448 294.235,401.231 292.734,401.231Z" style="fill:url(#_Linear12);"/>
            <path d="M292.734,543.572C291.233,543.572 290.016,544.789 290.016,546.29L290.016,560.808C290.016,562.309 291.233,563.525 292.734,563.525C294.235,563.525 295.451,562.309 295.451,560.808L295.451,546.29C295.451,544.789 294.235,543.572 292.734,543.572Z" style="fill:url(#_Linear13);"/>
            <path d="M266.395,412.16C264.894,412.16 263.677,413.377 263.677,414.878L263.677,549.838C263.677,551.339 264.894,552.555 266.395,552.555C267.896,552.555 269.113,551.339 269.113,549.838L269.113,414.878C269.113,413.377 267.896,412.16 266.395,412.16Z" style="fill:url(#_Linear14);"/>
            <path d="M275.175,430.024C273.674,430.024 272.457,431.241 272.457,432.742L272.457,498.054C272.457,499.555 273.674,500.772 275.175,500.772C276.675,500.772 277.892,499.555 277.892,498.054L277.892,432.742C277.892,431.241 276.675,430.024 275.175,430.024Z" style="fill:url(#_Linear15);"/>
            <path d="M275.175,502.157C273.674,502.157 272.457,503.374 272.457,504.875L272.457,533.999C272.457,535.5 273.674,536.717 275.175,536.717C276.675,536.717 277.892,535.5 277.892,533.999L277.892,504.875C277.892,503.374 276.675,502.157 275.175,502.157Z" style="fill:url(#_Linear16);"/>
            <path d="M283.954,450.909C282.453,450.909 281.236,452.126 281.236,453.627L281.236,548.298C281.236,549.799 282.453,551.016 283.954,551.016C285.455,551.016 286.672,549.799 286.672,548.298L286.672,453.627C286.672,452.126 285.455,450.909 283.954,450.909Z" style="fill:url(#_Linear17);"/>
            <path d="M283.954,448.546C285.455,448.546 286.672,447.329 286.672,445.828L286.672,426.822C286.672,425.321 285.455,424.104 283.954,424.104C282.453,424.104 281.236,425.321 281.236,426.822L281.236,445.828C281.236,447.329 282.453,448.546 283.954,448.546Z" style="fill:url(#_Linear18);"/>
            <path d="M283.954,421.741C285.455,421.741 286.672,420.524 286.672,419.023L286.672,413.108C286.672,411.607 285.455,410.391 283.954,410.391C282.453,410.391 281.236,411.607 281.236,413.108L281.236,419.023C281.236,420.524 282.453,421.741 283.954,421.741Z" style="fill:url(#_Linear19);"/>
            <path d="M257.614,441.024C256.114,441.024 254.898,442.241 254.898,443.742L254.898,520.974C254.898,522.475 256.114,523.691 257.614,523.691C259.116,523.691 260.333,522.475 260.333,520.974L260.333,443.742C260.333,442.241 259.116,441.024 257.614,441.024Z" style="fill:url(#_Linear20);"/>
            <path d="M301.513,433.347C300.012,433.347 298.796,434.564 298.796,436.065L298.796,528.651C298.796,530.152 300.012,531.369 301.513,531.369C303.014,531.369 304.231,530.152 304.231,528.651L304.231,436.065C304.231,434.564 303.014,433.347 301.513,433.347Z" style="fill:url(#_Linear21);"/>
            <path d="M248.836,457.748C247.335,457.748 246.118,458.964 246.118,460.465L246.118,504.25C246.118,505.751 247.335,506.968 248.836,506.968C250.337,506.968 251.553,505.751 251.553,504.25L251.553,460.465C251.553,458.964 250.337,457.748 248.836,457.748Z" style="fill:url(#_Linear22);"/>
            <path d="M196.158,471.069C194.657,471.069 193.44,472.286 193.44,473.787L193.44,475.55L84.679,475.55C83.907,475.55 83.282,476.176 83.282,476.947C83.282,477.719 83.907,478.344 84.679,478.344L193.44,478.344L193.44,482.008C193.44,483.509 194.657,484.726 196.158,484.726C197.659,484.726 198.876,483.509 198.876,482.008L198.876,473.787C198.876,472.286 197.659,471.069 196.158,471.069Z" style="fill:url(#_Linear23);"/>
            <path d="M222.497,437.216C220.996,437.216 219.779,438.432 219.779,439.933L219.779,487.387C219.779,488.685 220.832,489.738 222.131,489.738L222.863,489.738C224.162,489.738 225.215,488.685 225.215,487.387L225.215,439.933C225.215,438.432 223.998,437.216 222.497,437.216Z" style="fill:url(#_Linear24);"/>
            <path d="M222.497,492.625C220.996,492.625 219.779,493.841 219.779,495.342L219.779,519.656C219.779,520.955 220.832,522.008 222.131,522.008L222.863,522.008C224.162,522.008 225.214,520.955 225.214,519.656L225.214,495.342C225.214,493.841 223.998,492.625 222.497,492.625Z" style="fill:url(#_Linear25);"/>
            <path d="M406.868,420.611C405.368,420.611 404.151,421.828 404.151,423.329L404.151,543.709C404.151,545.21 405.368,546.427 406.868,546.427C408.369,546.427 409.586,545.21 409.586,543.709L409.586,423.329C409.586,421.828 408.369,420.611 406.868,420.611Z" style="fill:url(#_Linear26);"/>
            <path d="M362.97,472.688C361.469,472.688 360.253,473.905 360.253,475.406L360.253,535.405C360.253,536.906 361.469,538.122 362.97,538.122C364.471,538.122 365.688,536.906 365.688,535.405L365.688,475.406C365.688,473.905 364.471,472.688 362.97,472.688Z" style="fill:url(#_Linear27);"/>
            <path d="M415.648,439.174C414.147,439.174 412.93,440.391 412.93,441.892L412.93,498.132C412.93,499.632 414.147,500.849 415.648,500.849C417.149,500.849 418.366,499.632 418.366,498.132L418.366,441.892C418.366,440.391 417.149,439.174 415.648,439.174Z" style="fill:url(#_Linear28);"/>
            <path d="M415.648,503.099C414.147,503.099 412.93,504.316 412.93,505.817L412.93,523.081C412.93,524.581 414.147,525.798 415.648,525.798C417.149,525.798 418.366,524.581 418.366,523.081L418.366,505.817C418.366,504.316 417.149,503.099 415.648,503.099Z" style="fill:url(#_Linear29);"/>
            <path d="M398.089,455.26C396.588,455.26 395.371,456.477 395.371,457.977L395.371,467.401C395.371,468.902 396.588,470.119 398.089,470.119C399.59,470.119 400.806,468.902 400.806,467.401L400.806,457.977C400.806,456.477 399.59,455.26 398.089,455.26Z" style="fill:url(#_Linear30);"/>
            <path d="M398.089,473.72C396.588,473.72 395.371,474.937 395.371,476.438L395.371,557.647C395.371,559.148 396.588,560.365 398.089,560.365C399.59,560.365 400.806,559.148 400.806,557.647L400.806,476.438C400.806,474.937 399.59,473.72 398.089,473.72Z" style="fill:url(#_Linear31);"/>
            <path d="M389.309,471.727C387.808,471.727 386.592,472.944 386.592,474.445L386.592,536.366C386.592,537.867 387.808,539.083 389.309,539.083C390.81,539.083 392.027,537.867 392.027,536.366L392.027,474.445C392.027,472.944 390.81,471.727 389.309,471.727Z" style="fill:url(#_Linear32);"/>
            <path d="M424.428,472.688C422.927,472.688 421.71,473.905 421.71,475.406L421.71,526.292C421.71,527.793 422.927,529.01 424.428,529.01C425.929,529.01 427.145,527.793 427.145,526.292L427.145,475.406C427.145,473.905 425.929,472.688 424.428,472.688Z" style="fill:url(#_Linear33);"/>
            <path d="M371.75,467.016C370.249,467.016 369.032,468.232 369.032,469.733L369.032,505.393C369.032,506.894 370.249,508.111 371.75,508.111C373.251,508.111 374.468,506.894 374.468,505.393L374.468,469.733C374.468,468.232 373.251,467.016 371.75,467.016Z" style="fill:url(#_Linear34);"/>
            <path d="M371.75,509.708C370.249,509.708 369.032,510.924 369.032,512.425L369.032,550.065C369.032,551.566 370.249,552.783 371.75,552.783C373.251,552.783 374.468,551.566 374.468,550.065L374.468,512.425C374.468,510.924 373.251,509.708 371.75,509.708Z" style="fill:url(#_Linear35);"/>
            <path d="M345.411,461.617C343.91,461.617 342.694,462.834 342.694,464.334L342.694,500.381C342.694,501.882 343.91,503.099 345.411,503.099C346.912,503.099 348.129,501.882 348.129,500.381L348.129,464.334C348.129,462.834 346.912,461.617 345.411,461.617Z" style="fill:url(#_Linear36);"/>
            <path d="M336.632,449.641C335.131,449.641 333.914,450.857 333.914,452.358L333.914,512.357C333.914,513.858 335.131,515.075 336.632,515.075C338.133,515.075 339.349,513.858 339.349,512.357L339.349,452.358C339.349,450.857 338.133,449.641 336.632,449.641Z" style="fill:url(#_Linear37);"/>
            <path d="M354.191,480.701C352.69,480.701 351.473,481.918 351.473,483.418L351.473,527.392C351.473,528.893 352.69,530.11 354.191,530.11C355.692,530.11 356.908,528.893 356.908,527.392L356.908,483.418C356.908,481.918 355.692,480.701 354.191,480.701Z" style="fill:url(#_Linear38);"/>
            <path d="M380.53,481.15C379.029,481.15 377.812,482.367 377.812,483.867L377.812,526.943C377.812,528.444 379.029,529.661 380.53,529.661C382.031,529.661 383.247,528.444 383.247,526.943L383.247,483.867C383.247,482.367 382.031,481.15 380.53,481.15Z" style="fill:url(#_Linear39);"/>
            <path d="M441.987,462.406C440.486,462.406 439.269,463.622 439.269,465.123L439.269,488.771C439.269,490.272 440.486,491.489 441.987,491.489C443.488,491.489 444.705,490.272 444.705,488.771L444.705,465.123C444.705,463.622 443.488,462.406 441.987,462.406Z" style="fill:url(#_Linear40);"/>
            <path d="M433.207,457.92C431.706,457.92 430.49,459.136 430.49,460.637L430.49,482.309C430.49,483.809 431.706,485.026 433.207,485.026C434.708,485.026 435.925,483.809 435.925,482.309L435.925,460.637C435.925,459.136 434.708,457.92 433.207,457.92Z" style="fill:url(#_Linear41);"/>
            <path d="M433.207,486.613C431.706,486.613 430.49,487.83 430.49,489.331L430.49,497.449C430.49,498.949 431.706,500.166 433.207,500.166C434.708,500.166 435.925,498.949 435.925,497.449L435.925,489.331C435.925,487.83 434.708,486.613 433.207,486.613Z" style="fill:url(#_Linear42);"/>
            <path d="M562.125,475.55L453.364,475.55L453.364,472.836C453.364,471.336 452.147,470.119 450.646,470.119C449.146,470.119 447.929,471.336 447.929,472.836L447.929,481.058C447.929,482.558 449.146,483.775 450.646,483.775C452.147,483.775 453.364,482.558 453.364,481.058L453.364,478.344L562.125,478.344C562.897,478.344 563.522,477.719 563.522,476.947C563.522,476.176 562.897,475.55 562.125,475.55Z" style="fill:url(#_Linear43);"/>
        </g>
    </g>
    <defs>
        <linearGradient id="_Linear1" x1="0" y1="0" x2="1" y2="0" gradientUnits="userSpaceOnUse" gradientTransform="matrix(420.279,0,0,420.279,113.792,490.864)"><stop offset="0" style="stop-color:rgb(182,26,156);stop-opacity:1"/><stop offset="0.4" style="stop-color:rgb(102,97,187);stop-opacity:1"/><stop offset="0.6" style="stop-color:rgb(31,176,195);stop-opacity:1"/><stop offset="0.7" style="stop-color:rgb(0,203,195);stop-opacity:1"/><stop offset="1" style="stop-color:rgb(0,91,138);stop-opacity:1"/></linearGradient>
        <linearGradient id="_Linear2" x1="0" y1="0" x2="1" y2="0" gradientUnits="userSpaceOnUse" gradientTransform="matrix(420.279,0,0,420.279,113.792,482.358)"><stop offset="0" style="stop-color:rgb(182,26,156);stop-opacity:1"/><stop offset="0.4" style="stop-color:rgb(102,97,187);stop-opacity:1"/><stop offset="0.6" style="stop-color:rgb(31,176,195);stop-opacity:1"/><stop offset="0.7" style="stop-color:rgb(0,203,195);stop-opacity:1"/><stop offset="1" style="stop-color:rgb(0,91,138);stop-opacity:1"/></linearGradient>
        <linearGradient id="_Linear3" x1="0" y1="0" x2="1" y2="0" gradientUnits="userSpaceOnUse" gradientTransform="matrix(420.279,0,0,420.279,113.792,477.897)"><stop offset="0" style="stop-color:rgb(182,26,156);stop-opacity:1"/><stop offset="0.4" style="stop-color:rgb(102,97,187);stop-opacity:1"/><stop offset="0.6" style="stop-color:rgb(31,176,195);stop-opacity:1"/><stop offset="0.7" style="stop-color:rgb(0,203,195);stop-opacity:1"/><stop offset="1" style="stop-color:rgb(0,91,138);stop-opacity:1"/></linearGradient>
        <linearGradient id="_Linear4" x1="0" y1="0" x2="1" y2="0" gradientUnits="userSpaceOnUse" gradientTransform="matrix(420.279,0,0,420.279,113.792,457.801)"><stop offset="0" style="stop-color:rgb(182,26,156);stop-opacity:1"/><stop offset="0.4" style="stop-color:rgb(102,97,187);stop-opacity:1"/><stop offset="0.6" style="stop-color:rgb(31,176,195);stop-opacity:1"/><stop offset="0.7" style="stop-color:rgb(0,203,195);stop-opacity:1"/><stop offset="1" style="stop-color:rgb(0,91,138);stop-opacity:1"/></linearGradient>
        <linearGradient id="_Linear5" x1="0" y1="0" x2="1" y2="0" gradientUnits="userSpaceOnUse" gradientTransform="matrix(420.279,0,0,420.279,113.792,424.903)"><stop offset="0" style="stop-color:rgb(182,26,156);stop-opacity:1"/><stop offset="0.4" style="stop-color:rgb(102,97,187);stop-opacity:1"/><stop offset="0.6" style="stop-color:rgb(31,176,195);stop-opacity:1"/><stop offset="0.7" style="stop-color:rgb(0,203,195);stop-opacity:1"/><stop offset="1" style="stop-color:rgb(0,91,138);stop-opacity:1"/></linearGradient>
        <linearGradient id="_Linear6" x1="0" y1="0" x2="1" y2="0" gradientUnits="userSpaceOnUse" gradientTransform="matrix(420.279,0,0,420.279,113.792,513.528)"><stop offset="0" style="stop-color:rgb(182,26,156);stop-opacity:1"/><stop offset="0.4" style="stop-color:rgb(102,97,187);stop-opacity:1"/><stop offset="0.6" style="stop-color:rgb(31,176,195);stop-opacity:1"/><stop offset="0.7" style="stop-color:rgb(0,203,195);stop-opacity:1"/><stop offset="1" style="stop-color:rgb(0,91,138);stop-opacity:1"/></linearGradient>
        <linearGradient id="_Linear7" x1="0" y1="0" x2="1" y2="0" gradientUnits="userSpaceOnUse" gradientTransform="matrix(420.279,0,0,420.279,113.792,482.358)"><stop offset="0" style="stop-color:rgb(182,26,156);stop-opacity:1"/><stop offset="0.4" style="stop-color:rgb(102,97,187);stop-opacity:1"/><stop offset="0.6" style="stop-color:rgb(31,176,195);stop-opacity:1"/><stop offset="0.7" style="stop-color:rgb(0,203,195);stop-opacity:1"/><stop offset="1" style="stop-color:rgb(0,91,138);stop-opacity:1"/></linearGradient>
        <linearGradient id="_Linear8" x1="0" y1="0" x2="1" y2="0" gradientUnits="userSpaceOnUse" gradientTransform="matrix(420.279,0,0,420.279,113.792,443.833)"><stop offset="0" style="stop-color:rgb(182,26,156);stop-opacity:1"/><stop offset="0.4" style="stop-color:rgb(102,97,187);stop-opacity:1"/><stop offset="0.6" style="stop-color:rgb(31,176,195);stop-opacity:1"/><stop offset="0.7" style="stop-color:rgb(0,203,195);stop-opacity:1"/><stop offset="1" style="stop-color:rgb(0,91,138);stop-opacity:1"/></linearGradient>
        <linearGradient id="_Linear9" x1="0" y1="0" x2="1" y2="0" gradientUnits="userSpaceOnUse" gradientTransform="matrix(420.279,0,0,420.279,113.792,507.986)"><stop offset="0" style="stop-color:rgb(182,26,156);stop-opacity:1"/><stop offset="0.4" style="stop-color:rgb(102,97,187);stop-opacity:1"/><stop offset="0.6" style="stop-color:rgb(31,176,195);stop-opacity:1"/><stop offset="0.7" style="stop-color:rgb(0,203,195);stop-opacity:1"/><stop offset="1" style="stop-color:rgb(0,91,138);stop-opacity:1"/></linearGradient>
        <linearGradient id="_Linear10" x1="0" y1="0" x2="1" y2="0" gradientUnits="userSpaceOnUse" gradientTransform="matrix(420.279,0,0,420.279,113.792,483.182)"><stop offset="0" style="stop-color:rgb(182,26,156);stop-opacity:1"/><stop offset="0.4" style="stop-color:rgb(102,97,187);stop-opacity:1"/><stop offset="0.6" style="stop-color:rgb(31,176,195);stop-opacity:1"/><stop offset="0.7" style="stop-color:rgb(0,203,195);stop-opacity:1"/><stop offset="1" style="stop-color:rgb(0,91,138);stop-opacity:1"/></linearGradient>
        <linearGradient id="_Linear11" x1="0" y1="0" x2="1" y2="0" gradientUnits="userSpaceOnUse" gradientTransform="matrix(420.279,0,0,420.279,113.792,455.073)"><stop offset="0" style="stop-color:rgb(182,26,156);stop-opacity:1"/><stop offset="0.4" style="stop-color:rgb(102,97,187);stop-opacity:1"/><stop offset="0.6" style="stop-color:rgb(31,176,195);stop-opacity:1"/><stop offset="0.7" style="stop-color:rgb(0,203,195);stop-opacity:1"/><stop offset="1" style="stop-color:rgb(0,91,138);stop-opacity:1"/></linearGradient>
        <linearGradient id="_Linear12" x1="0" y1="0" x2="1" y2="0" gradientUnits="userSpaceOnUse" gradientTransform="matrix(420.279,0,0,420.279,113.792,471.162)"><stop offset="0" style="stop-color:rgb(182,26,156);stop-opacity:1"/><stop offset="0.4" style="stop-color:rgb(102,97,187);stop-opacity:1"/><stop offset="0.6" style="stop-color:rgb(31,176,195);stop-opacity:1"/><stop offset="0.7" style="stop-color:rgb(0,203,195);stop-opacity:1"/><stop offset="1" style="stop-color:rgb(0,91,138);stop-opacity:1"/></linearGradient>
        <linearGradient id="_Linear13" x1="0" y1="0" x2="1" y2="0" gradientUnits="userSpaceOnUse" gradientTransform="matrix(420.279,0,0,420.279,113.792,553.549)"><stop offset="0" style="stop-color:rgb(182,26,156);stop-opacity:1"/><stop offset="0.4" style="stop-color:rgb(102,97,187);stop-opacity:1"/><stop offset="0.6" style="stop-color:rgb(31,176,195);stop-opacity:1"/><stop offset="0.7" style="stop-color:rgb(0,203,195);stop-opacity:1"/><stop offset="1" style="stop-color:rgb(0,91,138);stop-opacity:1"/></linearGradient>
        <linearGradient id="_Linear14" x1="0" y1="0" x2="1" y2="0" gradientUnits="userSpaceOnUse" gradientTransform="matrix(420.279,0,0,420.279,113.792,482.358)"><stop offset="0" style="stop-color:rgb(182,26,156);stop-opacity:1"/><stop offset="0.4" style="stop-color:rgb(102,97,187);stop-opacity:1"/><stop offset="0.6" style="stop-color:rgb(31,176,195);stop-opacity:1"/><stop offset="0.7" style="stop-color:rgb(0,203,195);stop-opacity:1"/><stop offset="1" style="stop-color:rgb(0,91,138);stop-opacity:1"/></linearGradient>
        <linearGradient id="_Linear15" x1="0" y1="0" x2="1" y2="0" gradientUnits="userSpaceOnUse" gradientTransform="matrix(420.279,0,0,420.279,113.792,465.398)"><stop offset="0" style="stop-color:rgb(182,26,156);stop-opacity:1"/><stop offset="0.4" style="stop-color:rgb(102,97,187);stop-opacity:1"/><stop offset="0.6" style="stop-color:rgb(31,176,195);stop-opacity:1"/><stop offset="0.7" style="stop-color:rgb(0,203,195);stop-opacity:1"/><stop offset="1" style="stop-color:rgb(0,91,138);stop-opacity:1"/></linearGradient>
        <linearGradient id="_Linear16" x1="0" y1="0" x2="1" y2="0" gradientUnits="userSpaceOnUse" gradientTransform="matrix(420.279,0,0,420.279,113.792,519.437)"><stop offset="0" style="stop-color:rgb(182,26,156);stop-opacity:1"/><stop offset="0.4" style="stop-color:rgb(102,97,187);stop-opacity:1"/><stop offset="0.6" style="stop-color:rgb(31,176,195);stop-opacity:1"/><stop offset="0.7" style="stop-color:rgb(0,203,195);stop-opacity:1"/><stop offset="1" style="stop-color:rgb(0,91,138);stop-opacity:1"/></linearGradient>
        <linearGradient id="_Linear17" x1="0" y1="0" x2="1" y2="0" gradientUnits="userSpaceOnUse" gradientTransform="matrix(420.279,0,0,420.279,113.792,500.962)"><stop offset="0" style="stop-color:rgb(182,26,156);stop-opacity:1"/><stop offset="0.4" style="stop-color:rgb(102,97,187);stop-opacity:1"/><stop offset="0.6" style="stop-color:rgb(31,176,195);stop-opacity:1"/><stop offset="0.7" style="stop-color:rgb(0,203,195);stop-opacity:1"/><stop offset="1" style="stop-color:rgb(0,91,138);stop-opacity:1"/></linearGradient>
        <linearGradient id="_Linear18" x1="0" y1="0" x2="1" y2="0" gradientUnits="userSpaceOnUse" gradientTransform="matrix(420.279,0,0,420.279,113.792,436.325)"><stop offset="0" style="stop-color:rgb(182,26,156);stop-opacity:1"/><stop offset="0.4" style="stop-color:rgb(102,97,187);stop-opacity:1"/><stop offset="0.6" style="stop-color:rgb(31,176,195);stop-opacity:1"/><stop offset="0.7" style="stop-color:rgb(0,203,195);stop-opacity:1"/><stop offset="1" style="stop-color:rgb(0,91,138);stop-opacity:1"/></linearGradient>
        <linearGradient id="_Linear19" x1="0" y1="0" x2="1" y2="0" gradientUnits="userSpaceOnUse" gradientTransform="matrix(420.279,0,0,420.279,113.792,416.066)"><stop offset="0" style="stop-color:rgb(182,26,156);stop-opacity:1"/><stop offset="0.4" style="stop-color:rgb(102,97,187);stop-opacity:1"/><stop offset="0.6" style="stop-color:rgb(31,176,195);stop-opacity:1"/><stop offset="0.7" style="stop-color:rgb(0,203,195);stop-opacity:1"/><stop offset="1" style="stop-color:rgb(0,91,138);stop-opacity:1"/></linearGradient>
        <linearGradient id="_Linear20" x1="0" y1="0" x2="1" y2="0" gradientUnits="userSpaceOnUse" gradientTransform="matrix(420.279,0,0,420.279,113.792,482.358)"><stop offset="0" style="stop-color:rgb(182,26,156);stop-opacity:1"/><stop offset="0.4" style="stop-color:rgb(102,97,187);stop-opacity:1"/><stop offset="0.6" style="stop-color:rgb(31,176,195);stop-opacity:1"/><stop offset="0.7" style="stop-color:rgb(0,203,195);stop-opacity:1"/><stop offset="1" style="stop-color:rgb(0,91,138);stop-opacity:1"/></linearGradient>
        <linearGradient id="_Linear21" x1="0" y1="0" x2="1" y2="0" gradientUnits="userSpaceOnUse" gradientTransform="matrix(420.279,0,0,420.279,113.792,482.358)"><stop offset="0" style="stop-color:rgb(182,26,156);stop-opacity:1"/><stop offset="0.4" style="stop-color:rgb(102,97,187);stop-opacity:1"/><stop offset="0.6" style="stop-color:rgb(31,176,195);stop-opacity:1"/><stop offset="0.7" style="stop-color:rgb(0,203,195);stop-opacity:1"/><stop offset="1" style="stop-color:rgb(0,91,138);stop-opacity:1"/></linearGradient>
        <linearGradient id="_Linear22" x1="0" y1="0" x2="1" y2="0" gradientUnits="userSpaceOnUse" gradientTransform="matrix(420.279,0,0,420.279,113.792,482.358)"><stop offset="0" style="stop-color:rgb(182,26,156);stop-opacity:1"/><stop offset="0.4" style="stop-color:rgb(102,97,187);stop-opacity:1"/><stop offset="0.6" style="stop-color:rgb(31,176,195);stop-opacity:1"/><stop offset="0.7" style="stop-color:rgb(0,203,195);stop-opacity:1"/><stop offset="1" style="stop-color:rgb(0,91,138);stop-opacity:1"/></linearGradient>
        <linearGradient id="_Linear23" x1="0" y1="0" x2="1" y2="0" gradientUnits="userSpaceOnUse" gradientTransform="matrix(420.279,0,0,420.279,113.792,477.897)"><stop offset="0" style="stop-color:rgb(182,26,156);stop-opacity:1"/><stop offset="0.4" style="stop-color:rgb(102,97,187);stop-opacity:1"/><stop offset="0.6" style="stop-color:rgb(31,176,195);stop-opacity:1"/><stop offset="0.7" style="stop-color:rgb(0,203,195);stop-opacity:1"/><stop offset="1" style="stop-color:rgb(0,91,138);stop-opacity:1"/></linearGradient>
        <linearGradient id="_Linear24" x1="0" y1="0" x2="1" y2="0" gradientUnits="userSpaceOnUse" gradientTransform="matrix(420.279,0,0,420.279,113.792,463.477)"><stop offset="0" style="stop-color:rgb(182,26,156);stop-opacity:1"/><stop offset="0.4" style="stop-color:rgb(102,97,187);stop-opacity:1"/><stop offset="0.6" style="stop-color:rgb(31,176,195);stop-opacity:1"/><stop offset="0.7" style="stop-color:rgb(0,203,195);stop-opacity:1"/><stop offset="1" style="stop-color:rgb(0,91,138);stop-opacity:1"/></linearGradient>
        <linearGradient id="_Linear25" x1="0" y1="0" x2="1" y2="0" gradientUnits="userSpaceOnUse" gradientTransform="matrix(420.279,0,0,420.279,113.792,507.316)"><stop offset="0" style="stop-color:rgb(182,26,156);stop-opacity:1"/><stop offset="0.4" style="stop-color:rgb(102,97,187);stop-opacity:1"/><stop offset="0.6" style="stop-color:rgb(31,176,195);stop-opacity:1"/><stop offset="0.7" style="stop-color:rgb(0,203,195);stop-opacity:1"/><stop offset="1" style="stop-color:rgb(0,91,138);stop-opacity:1"/></linearGradient>
        <linearGradient id="_Linear26" x1="0" y1="0" x2="1" y2="0" gradientUnits="userSpaceOnUse" gradientTransform="matrix(420.279,0,0,420.279,113.792,483.519)"><stop offset="0" style="stop-color:rgb(182,26,156);stop-opacity:1"/><stop offset="0.4" style="stop-color:rgb(102,97,187);stop-opacity:1"/><stop offset="0.6" style="stop-color:rgb(31,176,195);stop-opacity:1"/><stop offset="0.7" style="stop-color:rgb(0,203,195);stop-opacity:1"/><stop offset="1" style="stop-color:rgb(0,91,138);stop-opacity:1"/></linearGradient>
        <linearGradient id="_Linear27" x1="0" y1="0" x2="1" y2="0" gradientUnits="userSpaceOnUse" gradientTransform="matrix(420.279,0,0,420.279,113.792,505.405)"><stop offset="0" style="stop-color:rgb(182,26,156);stop-opacity:1"/><stop offset="0.4" style="stop-color:rgb(102,97,187);stop-opacity:1"/><stop offset="0.6" style="stop-color:rgb(31,176,195);stop-opacity:1"/><stop offset="0.7" style="stop-color:rgb(0,203,195);stop-opacity:1"/><stop offset="1" style="stop-color:rgb(0,91,138);stop-opacity:1"/></linearGradient>
        <linearGradient id="_Linear28" x1="0" y1="0" x2="1" y2="0" gradientUnits="userSpaceOnUse" gradientTransform="matrix(420.279,0,0,420.279,113.792,470.012)"><stop offset="0" style="stop-color:rgb(182,26,156);stop-opacity:1"/><stop offset="0.4" style="stop-color:rgb(102,97,187);stop-opacity:1"/><stop offset="0.6" style="stop-color:rgb(31,176,195);stop-opacity:1"/><stop offset="0.7" style="stop-color:rgb(0,203,195);stop-opacity:1"/><stop offset="1" style="stop-color:rgb(0,91,138);stop-opacity:1"/></linearGradient>
        <linearGradient id="_Linear29" x1="0" y1="0" x2="1" y2="0" gradientUnits="userSpaceOnUse" gradientTransform="matrix(420.279,0,0,420.279,113.792,514.449)"><stop offset="0" style="stop-color:rgb(182,26,156);stop-opacity:1"/><stop offset="0.4" style="stop-color:rgb(102,97,187);stop-opacity:1"/><stop offset="0.6" style="stop-color:rgb(31,176,195);stop-opacity:1"/><stop offset="0.7" style="stop-color:rgb(0,203,195);stop-opacity:1"/><stop offset="1" style="stop-color:rgb(0,91,138);stop-opacity:1"/></linearGradient>
        <linearGradient id="_Linear30" x1="0" y1="0" x2="1" y2="0" gradientUnits="userSpaceOnUse" gradientTransform="matrix(420.279,0,0,420.279,113.792,462.689)"><stop offset="0" style="stop-color:rgb(182,26,156);stop-opacity:1"/><stop offset="0.4" style="stop-color:rgb(102,97,187);stop-opacity:1"/><stop offset="0.6" style="stop-color:rgb(31,176,195);stop-opacity:1"/><stop offset="0.7" style="stop-color:rgb(0,203,195);stop-opacity:1"/><stop offset="1" style="stop-color:rgb(0,91,138);stop-opacity:1"/></linearGradient>
        <linearGradient id="_Linear31" x1="0" y1="0" x2="1" y2="0" gradientUnits="userSpaceOnUse" gradientTransform="matrix(420.279,0,0,420.279,113.792,517.043)"><stop offset="0" style="stop-color:rgb(182,26,156);stop-opacity:1"/><stop offset="0.4" style="stop-color:rgb(102,97,187);stop-opacity:1"/><stop offset="0.6" style="stop-color:rgb(31,176,195);stop-opacity:1"/><stop offset="0.7" style="stop-color:rgb(0,203,195);stop-opacity:1"/><stop offset="1" style="stop-color:rgb(0,91,138);stop-opacity:1"/></linearGradient>
        <linearGradient id="_Linear32" x1="0" y1="0" x2="1" y2="0" gradientUnits="userSpaceOnUse" gradientTransform="matrix(420.279,0,0,420.279,113.792,505.405)"><stop offset="0" style="stop-color:rgb(182,26,156);stop-opacity:1"/><stop offset="0.4" style="stop-color:rgb(102,97,187);stop-opacity:1"/><stop offset="0.6" style="stop-color:rgb(31,176,195);stop-opacity:1"/><stop offset="0.7" style="stop-color:rgb(0,203,195);stop-opacity:1"/><stop offset="1" style="stop-color:rgb(0,91,138);stop-opacity:1"/></linearGradient>
        <linearGradient id="_Linear33" x1="0" y1="0" x2="1" y2="0" gradientUnits="userSpaceOnUse" gradientTransform="matrix(420.279,0,0,420.279,113.792,500.849)"><stop offset="0" style="stop-color:rgb(182,26,156);stop-opacity:1"/><stop offset="0.4" style="stop-color:rgb(102,97,187);stop-opacity:1"/><stop offset="0.6" style="stop-color:rgb(31,176,195);stop-opacity:1"/><stop offset="0.7" style="stop-color:rgb(0,203,195);stop-opacity:1"/><stop offset="1" style="stop-color:rgb(0,91,138);stop-opacity:1"/></linearGradient>
        <linearGradient id="_Linear34" x1="0" y1="0" x2="1" y2="0" gradientUnits="userSpaceOnUse" gradientTransform="matrix(420.279,0,0,420.279,113.792,487.563)"><stop offset="0" style="stop-color:rgb(182,26,156);stop-opacity:1"/><stop offset="0.4" style="stop-color:rgb(102,97,187);stop-opacity:1"/><stop offset="0.6" style="stop-color:rgb(31,176,195);stop-opacity:1"/><stop offset="0.7" style="stop-color:rgb(0,203,195);stop-opacity:1"/><stop offset="1" style="stop-color:rgb(0,91,138);stop-opacity:1"/></linearGradient>
        <linearGradient id="_Linear35" x1="0" y1="0" x2="1" y2="0" gradientUnits="userSpaceOnUse" gradientTransform="matrix(420.279,0,0,420.279,113.792,531.245)"><stop offset="0" style="stop-color:rgb(182,26,156);stop-opacity:1"/><stop offset="0.4" style="stop-color:rgb(102,97,187);stop-opacity:1"/><stop offset="0.6" style="stop-color:rgb(31,176,195);stop-opacity:1"/><stop offset="0.7" style="stop-color:rgb(0,203,195);stop-opacity:1"/><stop offset="1" style="stop-color:rgb(0,91,138);stop-opacity:1"/></linearGradient>
        <linearGradient id="_Linear36" x1="0" y1="0" x2="1" y2="0" gradientUnits="userSpaceOnUse" gradientTransform="matrix(420.279,0,0,420.279,113.792,482.358)"><stop offset="0" style="stop-color:rgb(182,26,156);stop-opacity:1"/><stop offset="0.4" style="stop-color:rgb(102,97,187);stop-opacity:1"/><stop offset="0.6" style="stop-color:rgb(31,176,195);stop-opacity:1"/><stop offset="0.7" style="stop-color:rgb(0,203,195);stop-opacity:1"/><stop offset="1" style="stop-color:rgb(0,91,138);stop-opacity:1"/></linearGradient>
        <linearGradient id="_Linear37" x1="0" y1="0" x2="1" y2="0" gradientUnits="userSpaceOnUse" gradientTransform="matrix(420.279,0,0,420.279,113.792,482.358)"><stop offset="0" style="stop-color:rgb(182,26,156);stop-opacity:1"/><stop offset="0.4" style="stop-color:rgb(102,97,187);stop-opacity:1"/><stop offset="0.6" style="stop-color:rgb(31,176,195);stop-opacity:1"/><stop offset="0.7" style="stop-color:rgb(0,203,195);stop-opacity:1"/><stop offset="1" style="stop-color:rgb(0,91,138);stop-opacity:1"/></linearGradient>
        <linearGradient id="_Linear38" x1="0" y1="0" x2="1" y2="0" gradientUnits="userSpaceOnUse" gradientTransform="matrix(420.279,0,0,420.279,113.792,505.405)"><stop offset="0" style="stop-color:rgb(182,26,156);stop-opacity:1"/><stop offset="0.4" style="stop-color:rgb(102,97,187);stop-opacity:1"/><stop offset="0.6" style="stop-color:rgb(31,176,195);stop-opacity:1"/><stop offset="0.7" style="stop-color:rgb(0,203,195);stop-opacity:1"/><stop offset="1" style="stop-color:rgb(0,91,138);stop-opacity:1"/></linearGradient>
        <linearGradient id="_Linear39" x1="0" y1="0" x2="1" y2="0" gradientUnits="userSpaceOnUse" gradientTransform="matrix(420.279,0,0,420.279,113.792,505.405)"><stop offset="0" style="stop-color:rgb(182,26,156);stop-opacity:1"/><stop offset="0.4" style="stop-color:rgb(102,97,187);stop-opacity:1"/><stop offset="0.6" style="stop-color:rgb(31,176,195);stop-opacity:1"/><stop offset="0.7" style="stop-color:rgb(0,203,195);stop-opacity:1"/><stop offset="1" style="stop-color:rgb(0,91,138);stop-opacity:1"/></linearGradient>
        <linearGradient id="_Linear40" x1="0" y1="0" x2="1" y2="0" gradientUnits="userSpaceOnUse" gradientTransform="matrix(420.279,0,0,420.279,113.792,476.947)"><stop offset="0" style="stop-color:rgb(182,26,156);stop-opacity:1"/><stop offset="0.4" style="stop-color:rgb(102,97,187);stop-opacity:1"/><stop offset="0.6" style="stop-color:rgb(31,176,195);stop-opacity:1"/><stop offset="0.7" style="stop-color:rgb(0,203,195);stop-opacity:1"/><stop offset="1" style="stop-color:rgb(0,91,138);stop-opacity:1"/></linearGradient>
        <linearGradient id="_Linear41" x1="0" y1="0" x2="1" y2="0" gradientUnits="userSpaceOnUse" gradientTransform="matrix(420.279,0,0,420.279,113.792,471.473)"><stop offset="0" style="stop-color:rgb(182,26,156);stop-opacity:1"/><stop offset="0.4" style="stop-color:rgb(102,97,187);stop-opacity:1"/><stop offset="0.6" style="stop-color:rgb(31,176,195);stop-opacity:1"/><stop offset="0.7" style="stop-color:rgb(0,203,195);stop-opacity:1"/><stop offset="1" style="stop-color:rgb(0,91,138);stop-opacity:1"/></linearGradient>
        <linearGradient id="_Linear42" x1="0" y1="0" x2="1" y2="0" gradientUnits="userSpaceOnUse" gradientTransform="matrix(420.279,0,0,420.279,113.792,493.39)"><stop offset="0" style="stop-color:rgb(182,26,156);stop-opacity:1"/><stop offset="0.4" style="stop-color:rgb(102,97,187);stop-opacity:1"/><stop offset="0.6" style="stop-color:rgb(31,176,195);stop-opacity:1"/><stop offset="0.7" style="stop-color:rgb(0,203,195);stop-opacity:1"/><stop offset="1" style="stop-color:rgb(0,91,138);stop-opacity:1"/></linearGradient>
        <linearGradient id="_Linear43" x1="0" y1="0" x2="1" y2="0" gradientUnits="userSpaceOnUse" gradientTransform="matrix(420.279,0,0,420.279,113.792,476.947)"><stop offset="0" style="stop-color:rgb(182,26,156);stop-opacity:1"/><stop offset="0.4" style="stop-color:rgb(102,97,187);stop-opacity:1"/><stop offset="0.6" style="stop-color:rgb(31,176,195);stop-opacity:1"/><stop offset="0.7" style="stop-color:rgb(0,203,195);stop-opacity:1"/><stop offset="1" style="stop-color:rgb(0,91,138);stop-opacity:1"/></linearGradient>
    </defs>
</svg>
